<svg width="90" height="112" viewBox="0 0 90 112" fill="none" xmlns="http://www.w3.org/2000/svg">
<path d="M71.8721 73.0694C70.5074 73.4723 68.5037 73.5176 66.3555 73.206C64.05 72.8717 61.6983 72.1669 59.3869 71.1284C63.5088 70.5286 66.7064 70.7134 69.4414 71.6825C70.0893 71.9121 71.1536 72.5259 71.8721 73.0694ZM48.8746 69.2885C48.7068 69.3342 48.5416 69.3773 48.3773 69.4229C47.2682 69.7248 46.1891 70.0193 45.1492 70.2814L43.7469 70.637C40.9262 71.3507 38.0422 72.0798 35.1938 72.9481C36.2762 70.3377 37.282 67.6984 38.2668 65.1179C38.9959 63.2078 39.7404 61.2564 40.5104 59.3303C40.901 59.9754 41.3087 60.6208 41.7329 61.2679C43.6654 64.2113 46.0947 66.9326 48.8746 69.2885ZM41.6996 39.8513C41.8824 43.0724 41.1874 46.1712 40.168 49.1439C38.9122 45.4681 38.327 41.4089 39.8969 38.1318C40.2996 37.2918 40.6294 36.8427 40.8433 36.6083C41.1737 37.1185 41.6083 38.2598 41.6996 39.8513ZM26.9737 80.6551C26.2681 81.9174 25.5479 83.099 24.8098 84.2148C23.0284 86.8994 20.115 89.7739 18.6183 89.7739C18.4711 89.7739 18.2928 89.7501 18.0324 89.4751C17.8648 89.2993 17.8379 89.1733 17.8461 89.0014C17.8965 88.0144 19.2043 86.2565 21.0988 84.6266C22.8183 83.148 24.7619 81.8334 26.9737 80.6551ZM76.6377 73.2091C76.4089 69.9213 70.8744 67.8121 70.8198 67.7925C68.6804 67.034 66.3561 66.6655 63.7146 66.6655C60.8868 66.6655 57.8382 67.0746 53.923 67.9893C50.4392 65.5197 47.4298 62.428 45.1814 59.0052C44.1885 57.493 43.2958 55.9835 42.5177 54.509C44.4172 49.9671 46.1278 45.0836 45.817 39.6141C45.5664 35.2285 43.5887 32.2826 40.8993 32.2826C39.0544 32.2826 37.466 33.649 36.1743 36.3476C33.8702 41.1564 34.4758 47.3094 37.9736 54.6515C36.7139 57.6103 35.5435 60.6777 34.4106 63.6471C33.0011 67.3394 31.5487 71.1488 29.9118 74.7726C25.3214 76.589 21.5501 78.7917 18.4073 81.496C16.3484 83.2644 13.8662 85.9678 13.7246 88.79C13.6554 90.1191 14.1111 91.338 15.0372 92.3146C16.0211 93.3514 17.2572 93.8974 18.6164 93.8991C23.1053 93.8991 27.4257 87.7316 28.2453 86.4945C29.8948 84.0081 31.4387 81.2347 32.9515 78.0357C36.7618 76.6587 40.8223 75.6308 44.758 74.6374L46.1675 74.2792C47.227 74.0099 48.3283 73.712 49.4578 73.4028C50.6531 73.0797 51.8829 72.7446 53.1328 72.4262C57.174 74.9963 61.5199 76.6727 65.7583 77.2878C69.3283 77.8072 72.4987 77.506 74.6449 76.3871C76.5761 75.3813 76.6825 73.8293 76.6377 73.2091ZM85.3314 101.48C85.3314 107.501 80.0246 107.872 78.9538 107.884H10.4856C4.48627 107.884 4.12502 102.541 4.11356 101.48L4.11275 10.518C4.11275 4.49092 9.42936 4.12552 10.4848 4.11342H56.7364L56.761 4.13784V22.1871C56.761 25.8094 58.9509 32.6673 67.2442 32.6673H85.1768L85.3308 32.821L85.3314 101.48ZM81.0802 28.5533H67.2473C61.2497 28.5533 60.8868 23.2391 60.8787 22.1877V8.2686L81.0802 28.5533ZM89.4452 101.48V31.124L60.8787 2.43886V2.3054H60.7421L58.4478 0H10.4857C6.85871 0 0 2.19894 0 10.5199V101.482C0 105.12 2.19228 112 10.4857 112H78.9603C82.5866 111.999 89.4452 109.8 89.4452 101.48Z" fill="#AB8E63"/>
</svg>
