<svg width="51" height="48" viewBox="0 0 51 48" fill="none" xmlns="http://www.w3.org/2000/svg">
<g clip-path="url(#clip0_6688_129)">
<path d="M43.6643 20.3571L22.928 38.0243C22.4195 38.4664 21.8071 38.761 21.1769 38.8666C20.5468 38.9723 19.9305 38.8837 19.4148 38.6133C18.8995 38.3547 18.5053 37.9301 18.2863 37.3981C18.0674 36.866 18.0345 36.2525 18.1921 35.6419L20.3225 26.8947L23.5539 25.8206L28.7788 24.084C29.1739 23.9527 29.5247 23.6787 29.754 23.3222C29.9833 22.9658 30.0724 22.5562 30.0015 22.1834C29.9307 21.8107 29.7058 21.5054 29.3763 21.3347C29.0469 21.1639 28.6398 21.1418 28.2447 21.2732L23.0198 23.0097L19.7303 24.0715L14.7473 17.6885C14.3449 17.2589 14.1168 16.6888 14.0967 16.0629C14.0765 15.4369 14.2655 14.7883 14.6355 14.2131C15.0056 13.6379 15.537 13.1668 16.1512 12.8694C16.7653 12.5721 17.4295 12.4644 18.0453 12.5622L42.6826 15.1907C43.2633 15.2239 43.7929 15.4294 44.2048 15.7812C44.6167 16.1329 44.8925 16.6153 44.9974 17.1676C45.1024 17.72 45.0318 18.3175 44.7946 18.885C44.5574 19.4525 44.1641 19.9647 43.6643 20.3571Z" fill="#D2AE6D"/>
</g>
<defs>
<clipPath id="clip0_6688_129">
<rect width="33.4425" height="38.1967" fill="white" transform="matrix(0.8879 0.460037 -0.541054 0.840988 20.6665 0)"/>
</clipPath>
</defs>
</svg>
