<svg width="66" height="66" viewBox="0 0 66 66" fill="none" xmlns="http://www.w3.org/2000/svg">
<g clip-path="url(#clip0_6695_159)">
<path d="M65.8519 32.9918C57.3084 33.5161 49.2515 37.1464 43.199 43.199C37.1464 49.2515 33.5161 57.3084 32.9918 65.8519H32.8601C32.3366 57.3081 28.7066 49.2507 22.6539 43.198C16.6012 37.1453 8.54379 33.5152 0 32.9918L0 32.8601C8.54379 32.3366 16.6012 28.7066 22.6539 22.6539C28.7066 16.6012 32.3366 8.54379 32.8601 0L32.9918 0C33.5161 8.54349 37.1464 16.6004 43.199 22.6529C49.2515 28.7054 57.3084 32.3358 65.8519 32.8601V32.9918Z" fill="#AB8E63"/>
</g>
<g clip-path="url(#clip1_6695_159)">
<path d="M62.7161 10.9973C59.8682 11.172 57.1826 12.3821 55.1651 14.3997C53.1476 16.4172 51.9375 19.1028 51.7627 21.9506H51.7188C51.5443 19.1027 50.3343 16.4169 48.3167 14.3993C46.2992 12.3818 43.6134 11.1717 40.7654 10.9973V10.9534C43.6134 10.7789 46.2992 9.56886 48.3167 7.55129C50.3343 5.53372 51.5443 2.84793 51.7188 0L51.7627 0C51.9375 2.84783 53.1476 5.53346 55.1651 7.55097C57.1826 9.56847 59.8682 10.7786 62.7161 10.9534V10.9973Z" fill="#AB8E63"/>
</g>
<defs>
<clipPath id="clip0_6695_159">
<rect width="65.8519" height="65.8519" fill="white"/>
</clipPath>
<clipPath id="clip1_6695_159">
<rect width="21.9506" height="21.9506" fill="white" transform="translate(40.7654)"/>
</clipPath>
</defs>
</svg>
