<svg width="376" height="63" viewBox="0 0 376 63" fill="none" xmlns="http://www.w3.org/2000/svg">
<g filter="url(#filter0_i_6657_100)">
<path d="M302.088 8.45112V26.2204C302.088 28.1347 302.57 29.5385 303.532 30.4257C304.507 31.3191 305.79 31.7627 307.383 31.7627H313.228V33.9747H272.015V31.7627H277.929C279.516 31.7627 280.794 31.3191 281.757 30.4257C282.72 29.5385 283.201 28.1347 283.201 26.2204V8.45112C283.201 6.91362 282.679 5.58275 281.642 4.46457C280.617 3.34639 279.379 2.7873 277.929 2.7873H272.015V0.599566H313.228V2.7873H307.383C305.928 2.7873 304.684 3.34639 303.647 4.46457C302.604 5.58275 302.088 6.91362 302.088 8.45112ZM289.596 31.7627V2.7873H286.456V31.7627H289.596Z" fill="white"/>
<path d="M375.651 31.7627V33.9747H339.275V31.7627H342.873C343.71 31.7627 344.397 31.5682 344.936 31.1793C345.469 30.7904 345.738 30.2009 345.738 29.4048C345.738 28.6148 345.263 27.5999 344.317 26.3663L342.529 24.0084H321.075C320.141 25.552 319.676 26.9132 319.676 28.0922C319.676 29.2772 320.009 30.1827 320.685 30.8147C321.355 31.4467 322.227 31.7627 323.298 31.7627H327.814V33.9747H306.68V31.7627C307.688 31.7627 308.743 31.5075 309.843 30.9848C310.943 30.4501 311.906 29.812 312.731 29.0645C313.568 28.3049 314.341 27.527 315.046 26.7309C315.763 25.9409 316.307 25.2906 316.674 24.7862C317.052 24.2697 317.247 23.9962 317.247 23.9598L329.693 7.16278L328.478 5.58275C327.711 4.58004 326.902 3.86902 326.049 3.44363C325.189 3.00608 324.014 2.7873 322.519 2.7873H318.691V0.599566H346.403L370.127 31.7627H375.651ZM322.908 21.5532H340.696L331.596 9.61791L322.908 21.5532ZM352.317 31.7627H356.053L334.003 2.7873H330.266L352.317 31.7627Z" fill="white"/>
<path d="M0.41259 62.2477C0.13753 62.2477 0 62.1018 0 61.8101V44.9888C0 44.7154 0.13753 44.5756 0.41259 44.5756H2.9569C3.16892 44.5756 3.32937 44.6668 3.43825 44.843L6.89943 50.7499C6.92808 50.7985 6.95673 50.8228 6.99111 50.8228C7.03696 50.8228 7.06561 50.7985 7.0828 50.7499L10.5898 44.843C10.693 44.6668 10.8534 44.5756 11.0712 44.5756H13.6155C13.8733 44.5756 14.0051 44.7154 14.0051 44.9888V61.8101C14.0051 62.1018 13.8733 62.2477 13.6155 62.2477H11.0712C10.7961 62.2477 10.6586 62.1018 10.6586 61.8101V50.8714C10.6586 50.8107 10.6357 50.7681 10.5898 50.7499C10.5554 50.7377 10.5268 50.762 10.4981 50.8228L8.09135 55.0038C7.96528 55.1861 7.80483 55.2712 7.61 55.2712H6.39515C6.17739 55.2712 6.01694 55.1861 5.91379 55.0038L3.52994 50.8228C3.49556 50.762 3.46117 50.7377 3.41533 50.7499C3.38095 50.7681 3.36949 50.8107 3.36949 50.8714V61.8101C3.36949 62.1018 3.23196 62.2477 2.9569 62.2477H0.41259Z" fill="white"/>
<path d="M30.8705 47.2009C30.8705 47.4804 30.7387 47.6141 30.4809 47.6141H22.8021C22.7104 47.6141 22.6646 47.6749 22.6646 47.7843V51.6493C22.6646 51.7465 22.7104 51.7951 22.8021 51.7951H27.7761C28.0512 51.7951 28.1887 51.941 28.1887 52.2327V54.4204C28.1887 54.7121 28.0512 54.858 27.7761 54.858H22.8021C22.7104 54.858 22.6646 54.9066 22.6646 55.0038V59.039C22.6646 59.1362 22.7104 59.1848 22.8021 59.1848H30.4809C30.7387 59.1848 30.8705 59.3307 30.8705 59.6224V61.8101C30.8705 62.1018 30.7387 62.2477 30.4809 62.2477H19.7077C19.4326 62.2477 19.2951 62.1018 19.2951 61.8101V44.9888C19.2951 44.7154 19.4326 44.5756 19.7077 44.5756H30.4809C30.7387 44.5756 30.8705 44.7154 30.8705 44.9888V47.2009Z" fill="white"/>
<path d="M36.0006 62.2477C35.7255 62.2477 35.588 62.1018 35.588 61.8101V44.9888C35.588 44.7154 35.7255 44.5756 36.0006 44.5756H38.5449C38.8199 44.5756 38.9574 44.7154 38.9574 44.9888V59.039C38.9574 59.1362 39.0033 59.1848 39.095 59.1848H46.7508C47.0087 59.1848 47.1405 59.3307 47.1405 59.6224V61.8101C47.1405 62.1018 47.0087 62.2477 46.7508 62.2477H36.0006Z" fill="white"/>
<path d="M60.4658 44.9888C60.4658 44.7154 60.6034 44.5756 60.8784 44.5756H63.4227C63.6806 44.5756 63.8124 44.7154 63.8124 44.9888V61.8101C63.8124 62.1018 63.6806 62.2477 63.4227 62.2477H60.8784C60.6034 62.2477 60.4658 62.1018 60.4658 61.8101V55.0038C60.4658 54.9066 60.42 54.858 60.3283 54.858H55.1022C55.0105 54.858 54.9646 54.9066 54.9646 55.0038V61.8101C54.9646 62.1018 54.8271 62.2477 54.552 62.2477H52.0077C51.7327 62.2477 51.5952 62.1018 51.5952 61.8101V44.9888C51.5952 44.7154 51.7327 44.5756 52.0077 44.5756H54.552C54.8271 44.5756 54.9646 44.7154 54.9646 44.9888V51.6493C54.9646 51.7465 55.0105 51.7951 55.1022 51.7951H60.3283C60.42 51.7951 60.4658 51.7465 60.4658 51.6493V44.9888Z" fill="white"/>
<path d="M74.8728 62.5151C73.635 62.5151 72.5405 62.2477 71.595 61.7129C70.6437 61.1781 69.9102 60.4246 69.3945 59.4522C68.873 58.4799 68.6152 57.3739 68.6152 56.122V50.7013C68.6152 49.4555 68.873 48.3555 69.3945 47.3954C69.9102 46.4413 70.6437 45.6938 71.595 45.159C72.5405 44.6242 73.635 44.3568 74.8728 44.3568C76.122 44.3568 77.2223 44.6242 78.1735 45.159C79.119 45.6938 79.8525 46.4413 80.374 47.3954C80.8897 48.3555 81.1533 49.4555 81.1533 50.7013V56.122C81.1533 57.3739 80.8897 58.4921 80.374 59.4765C79.8525 60.4489 79.119 61.2024 78.1735 61.7372C77.2223 62.2538 76.122 62.5151 74.8728 62.5151ZM74.8728 59.4765C75.7438 59.4765 76.4429 59.1848 76.9816 58.6015C77.5317 58.0059 77.8068 57.2159 77.8068 56.2436V50.677C77.8068 49.7046 77.5374 48.9207 77.0045 48.3191C76.4659 47.7235 75.7553 47.4197 74.8728 47.4197C74.0018 47.4197 73.2969 47.7235 72.764 48.3191C72.2253 48.9207 71.9617 49.7046 71.9617 50.677V56.2436C71.9617 57.2159 72.2253 58.0059 72.764 58.6015C73.2969 59.1848 74.0018 59.4765 74.8728 59.4765Z" fill="white"/>
<path d="M95.3706 62.2476C95.1529 62.2476 94.9924 62.1383 94.8893 61.9073L91.9553 55.0524C91.9209 54.9734 91.8693 54.9309 91.7948 54.9309H89.6173C89.5256 54.9309 89.4797 54.9795 89.4797 55.0767V61.8101C89.4797 62.1018 89.3422 62.2476 89.0672 62.2476H86.5228C86.2478 62.2476 86.1103 62.1018 86.1103 61.8101V44.9645C86.1103 44.691 86.2478 44.5513 86.5228 44.5513H93.216C94.2245 44.5513 95.107 44.7822 95.8749 45.2319C96.6542 45.6694 97.2502 46.2954 97.6628 47.1036C98.0868 47.8997 98.3046 48.8234 98.3046 49.8748C98.3046 51.0294 98.0353 52.0139 97.5023 52.8404C96.9637 53.6547 96.2187 54.2259 95.256 54.5663C95.2102 54.5845 95.1758 54.6149 95.1643 54.6635C95.1471 54.7 95.1529 54.7303 95.1872 54.7607L98.3275 61.7372C98.3848 61.804 98.4192 61.883 98.4192 61.9803C98.4192 62.0653 98.3791 62.1261 98.3046 62.1747C98.2416 62.2233 98.1556 62.2476 98.0525 62.2476H95.3706ZM89.6173 47.6141C89.5256 47.6141 89.4797 47.6749 89.4797 47.7843V52.0139C89.4797 52.1111 89.5256 52.1597 89.6173 52.1597H92.7117C93.3822 52.1597 93.9265 51.9592 94.3391 51.552C94.7632 51.1509 94.981 50.604 94.981 49.9234C94.981 49.2428 94.7632 48.6958 94.3391 48.2704C93.9265 47.8329 93.3822 47.6141 92.7117 47.6141H89.6173Z" fill="white"/>
<path d="M120.991 62.2477C120.762 62.2477 120.607 62.1261 120.533 61.8831L119.868 59.5495C119.851 59.4705 119.805 59.4279 119.731 59.4279H113.886C113.805 59.4279 113.76 59.4705 113.748 59.5495L113.083 61.8831C113.003 62.1261 112.854 62.2477 112.625 62.2477H109.874C109.72 62.2477 109.611 62.2112 109.553 62.1261C109.49 62.0289 109.485 61.9074 109.53 61.7615L114.596 44.9159C114.688 44.6911 114.837 44.5756 115.055 44.5756H118.562C118.774 44.5756 118.928 44.6911 119.02 44.9159L124.086 61.7615C124.097 61.798 124.109 61.8466 124.109 61.9074C124.109 62.0228 124.074 62.114 124.017 62.1748C123.954 62.2234 123.862 62.2477 123.742 62.2477H120.991ZM114.573 56.4866C114.556 56.6021 114.602 56.6568 114.711 56.6568H118.928C119.02 56.6568 119.054 56.6021 119.043 56.4866L116.888 48.7809C116.871 48.7202 116.843 48.6837 116.797 48.6837C116.762 48.6837 116.734 48.7202 116.705 48.7809L114.573 56.4866Z" fill="white"/>
<path d="M129.065 62.2477C128.79 62.2477 128.652 62.1018 128.652 61.8101V44.9888C128.652 44.7154 128.79 44.5756 129.065 44.5756H131.609C131.821 44.5756 131.981 44.6668 132.09 44.843L135.552 50.7499C135.58 50.7985 135.609 50.8228 135.643 50.8228C135.689 50.8228 135.718 50.7985 135.735 50.7499L139.242 44.843C139.345 44.6668 139.506 44.5756 139.723 44.5756H142.268C142.525 44.5756 142.657 44.7154 142.657 44.9888V61.8101C142.657 62.1018 142.525 62.2477 142.268 62.2477H139.723C139.448 62.2477 139.311 62.1018 139.311 61.8101V50.8714C139.311 50.8107 139.288 50.7681 139.242 50.7499C139.208 50.7377 139.179 50.762 139.15 50.8228L136.743 55.0038C136.617 55.1861 136.457 55.2712 136.262 55.2712H135.047C134.829 55.2712 134.669 55.1861 134.566 55.0038L132.182 50.8228C132.148 50.762 132.113 50.7377 132.067 50.7499C132.033 50.7681 132.022 50.8107 132.022 50.8714V61.8101C132.022 62.1018 131.884 62.2477 131.609 62.2477H129.065Z" fill="white"/>
<path d="M148.36 62.2477C148.085 62.2477 147.947 62.1018 147.947 61.8101V44.9888C147.947 44.7154 148.085 44.5756 148.36 44.5756H150.904C151.179 44.5756 151.317 44.7154 151.317 44.9888V61.8101C151.317 62.1018 151.179 62.2477 150.904 62.2477H148.36Z" fill="white"/>
<path d="M162.462 62.4422C161.236 62.4422 160.153 62.1869 159.207 61.6643C158.273 61.1477 157.545 60.4246 157.03 59.5009C156.525 58.565 156.273 57.4772 156.273 56.2436V50.5797C156.273 49.3522 156.525 48.2644 157.03 47.3224C157.545 46.3866 158.273 45.6573 159.207 45.1347C160.153 44.6182 161.236 44.3568 162.462 44.3568C163.665 44.3568 164.737 44.6182 165.671 45.1347C166.599 45.6391 167.321 46.3258 167.826 47.2009C168.341 48.0638 168.605 49.0179 168.605 50.0693V50.1179C168.605 50.4096 168.467 50.5554 168.192 50.5554H165.648C165.522 50.5554 165.425 50.5433 165.35 50.5068C165.287 50.4582 165.258 50.4096 165.258 50.361V50.1665C165.258 49.4069 164.995 48.7566 164.479 48.2218C163.975 47.6871 163.299 47.4197 162.462 47.4197C161.602 47.4197 160.915 47.7053 160.399 48.2705C159.878 48.8417 159.62 49.577 159.62 50.4825V56.3408C159.62 57.2523 159.895 57.9877 160.445 58.5528C161.006 59.1241 161.717 59.4036 162.577 59.4036C163.402 59.4036 164.055 59.1727 164.548 58.6987C165.052 58.2308 165.304 57.5927 165.304 56.7783V55.6602C165.304 55.5629 165.247 55.5143 165.144 55.5143H162.622C162.359 55.5143 162.233 55.3685 162.233 55.0768V53.0106C162.233 52.7189 162.359 52.573 162.622 52.573H168.192C168.467 52.573 168.605 52.7189 168.605 53.0106V56.2192C168.605 57.5015 168.353 58.6136 167.849 59.5495C167.344 60.4914 166.622 61.2146 165.694 61.7129C164.76 62.1991 163.683 62.4422 162.462 62.4422Z" fill="white"/>
<path d="M184.162 62.2477C183.933 62.2477 183.778 62.1261 183.704 61.8831L183.039 59.5495C183.022 59.4705 182.976 59.4279 182.902 59.4279H177.057C176.976 59.4279 176.93 59.4705 176.919 59.5495L176.254 61.8831C176.174 62.1261 176.025 62.2477 175.796 62.2477H173.045C172.891 62.2477 172.782 62.2112 172.724 62.1261C172.661 62.0289 172.656 61.9074 172.701 61.7615L177.767 44.9159C177.859 44.6911 178.008 44.5756 178.226 44.5756H181.733C181.945 44.5756 182.099 44.6911 182.191 44.9159L187.257 61.7615C187.268 61.798 187.28 61.8466 187.28 61.9074C187.28 62.0228 187.245 62.114 187.188 62.1748C187.125 62.2234 187.033 62.2477 186.913 62.2477H184.162ZM177.744 56.4866C177.727 56.6021 177.773 56.6568 177.882 56.6568H182.099C182.191 56.6568 182.225 56.6021 182.214 56.4866L180.059 48.7809C180.042 48.7202 180.013 48.6837 179.968 48.6837C179.933 48.6837 179.905 48.7202 179.876 48.7809L177.744 56.4866Z" fill="white"/>
<path d="M199.359 62.2477C199.084 62.2477 198.946 62.1018 198.946 61.8101V44.9888C198.946 44.7154 199.084 44.5756 199.359 44.5756H205.204C206.396 44.5756 207.433 44.8065 208.321 45.2562C209.221 45.6938 209.914 46.3197 210.407 47.128C210.894 47.9423 211.141 48.8721 211.141 49.9234V56.8999C211.141 57.9573 210.894 58.8871 210.407 59.6953C209.914 60.5096 209.221 61.1417 208.321 61.5914C207.433 62.0289 206.396 62.2477 205.204 62.2477H199.359ZM202.316 59.039C202.316 59.1362 202.362 59.1848 202.453 59.1848H205.318C206.052 59.1848 206.636 58.9296 207.083 58.407C207.542 57.8904 207.777 57.1916 207.794 56.3165V50.5068C207.794 49.6317 207.565 48.9389 207.106 48.4163C206.659 47.8815 206.058 47.6141 205.296 47.6141H202.453C202.362 47.6141 202.316 47.6749 202.316 47.7843V59.039Z" fill="white"/>
<path d="M221.986 62.5151C220.748 62.5151 219.653 62.2477 218.708 61.7129C217.757 61.1781 217.023 60.4246 216.507 59.4522C215.986 58.4799 215.728 57.3739 215.728 56.122V50.7013C215.728 49.4555 215.986 48.3555 216.507 47.3954C217.023 46.4413 217.757 45.6938 218.708 45.159C219.653 44.6242 220.748 44.3568 221.986 44.3568C223.235 44.3568 224.335 44.6242 225.286 45.159C226.232 45.6938 226.965 46.4413 227.487 47.3954C228.003 48.3555 228.266 49.4555 228.266 50.7013V56.122C228.266 57.3739 228.003 58.4921 227.487 59.4765C226.965 60.4489 226.232 61.2024 225.286 61.7372C224.335 62.2538 223.235 62.5151 221.986 62.5151ZM221.986 59.4765C222.857 59.4765 223.556 59.1848 224.095 58.6015C224.645 58.0059 224.92 57.2159 224.92 56.2436V50.677C224.92 49.7046 224.65 48.9207 224.117 48.3191C223.579 47.7235 222.868 47.4197 221.986 47.4197C221.115 47.4197 220.41 47.7235 219.877 48.3191C219.338 48.9207 219.075 49.7046 219.075 50.677V56.2436C219.075 57.2159 219.338 58.0059 219.877 58.6015C220.41 59.1848 221.115 59.4765 221.986 59.4765Z" fill="white"/>
<path d="M251.097 62.2477C250.868 62.2477 250.713 62.1261 250.638 61.8831L249.974 59.5495C249.956 59.4705 249.911 59.4279 249.836 59.4279H243.991C243.911 59.4279 243.865 59.4705 243.854 59.5495L243.189 61.8831C243.109 62.1261 242.96 62.2477 242.73 62.2477H239.98C239.825 62.2477 239.716 62.2112 239.659 62.1261C239.596 62.0289 239.59 61.9074 239.636 61.7615L244.702 44.9159C244.793 44.6911 244.942 44.5756 245.16 44.5756H248.667C248.879 44.5756 249.034 44.6911 249.126 44.9159L254.191 61.7615C254.203 61.798 254.214 61.8466 254.214 61.9074C254.214 62.0228 254.18 62.114 254.122 62.1748C254.059 62.2234 253.968 62.2477 253.847 62.2477H251.097ZM244.679 56.4866C244.662 56.6021 244.707 56.6568 244.816 56.6568H249.034C249.126 56.6568 249.16 56.6021 249.148 56.4866L246.994 48.7809C246.977 48.7202 246.948 48.6837 246.902 48.6837C246.868 48.6837 246.839 48.7202 246.81 48.7809L244.679 56.4866Z" fill="white"/>
<path d="M259.147 62.2477C258.872 62.2477 258.735 62.1018 258.735 61.8101V44.9888C258.735 44.7154 258.872 44.5756 259.147 44.5756H264.992C266.184 44.5756 267.222 44.8065 268.11 45.2562C269.009 45.6938 269.703 46.3197 270.196 47.128C270.683 47.9423 270.929 48.8721 270.929 49.9234V56.8999C270.929 57.9573 270.683 58.8871 270.196 59.6953C269.703 60.5096 269.009 61.1417 268.11 61.5914C267.222 62.0289 266.184 62.2477 264.992 62.2477H259.147ZM262.104 59.039C262.104 59.1362 262.15 59.1848 262.242 59.1848H265.107C265.84 59.1848 266.425 58.9296 266.872 58.407C267.33 57.8904 267.565 57.1916 267.583 56.3165V50.5068C267.583 49.6317 267.353 48.9389 266.895 48.4163C266.448 47.8815 265.846 47.6141 265.084 47.6141H262.242C262.15 47.6141 262.104 47.6749 262.104 47.7843V59.039Z" fill="white"/>
<path d="M280.399 62.2477C280.17 62.2477 280.015 62.1261 279.941 61.8831L275.104 45.0375C275.087 45.0071 275.081 44.9585 275.081 44.8916C275.081 44.685 275.201 44.5756 275.448 44.5756H278.198C278.428 44.5756 278.577 44.6911 278.657 44.9159L281.774 57.0943C281.786 57.1612 281.82 57.1916 281.866 57.1916C281.912 57.1916 281.94 57.1612 281.958 57.0943L285.029 44.9402C285.121 44.6971 285.27 44.5756 285.488 44.5756H288.192C288.33 44.5756 288.427 44.6242 288.49 44.7215C288.548 44.8065 288.559 44.9098 288.513 45.0375L283.608 61.8831C283.528 62.1261 283.379 62.2477 283.15 62.2477H280.399Z" fill="white"/>
<path d="M298.972 62.5151C297.735 62.5151 296.64 62.2477 295.694 61.7129C294.743 61.1781 294.01 60.4246 293.494 59.4522C292.973 58.4799 292.715 57.3739 292.715 56.122V50.7013C292.715 49.4555 292.973 48.3555 293.494 47.3954C294.01 46.4413 294.743 45.6938 295.694 45.159C296.64 44.6242 297.735 44.3568 298.972 44.3568C300.222 44.3568 301.322 44.6242 302.273 45.159C303.219 45.6938 303.952 46.4413 304.473 47.3954C304.989 48.3555 305.253 49.4555 305.253 50.7013V56.122C305.253 57.3739 304.989 58.4921 304.473 59.4765C303.952 60.4489 303.219 61.2024 302.273 61.7372C301.322 62.2538 300.222 62.5151 298.972 62.5151ZM298.972 59.4765C299.843 59.4765 300.542 59.1848 301.081 58.6015C301.631 58.0059 301.906 57.2159 301.906 56.2436V50.677C301.906 49.7046 301.637 48.9207 301.104 48.3191C300.565 47.7235 299.855 47.4197 298.972 47.4197C298.101 47.4197 297.396 47.7235 296.863 48.3191C296.325 48.9207 296.061 49.7046 296.061 50.677V56.2436C296.061 57.2159 296.325 58.0059 296.863 58.6015C297.396 59.1848 298.101 59.4765 298.972 59.4765Z" fill="white"/>
<path d="M316.078 62.4422C314.851 62.4422 313.768 62.1869 312.823 61.6643C311.889 61.1477 311.161 60.4246 310.645 59.5009C310.141 58.565 309.889 57.4772 309.889 56.2436V50.5797C309.889 49.3522 310.141 48.2644 310.645 47.3224C311.161 46.3866 311.889 45.6573 312.823 45.1347C313.768 44.6182 314.851 44.3568 316.078 44.3568C317.281 44.3568 318.353 44.6182 319.287 45.1347C320.215 45.6391 320.937 46.3258 321.441 47.2009C321.957 48.0638 322.221 49.0179 322.221 50.0693V50.1179C322.221 50.4096 322.083 50.5554 321.808 50.5554H319.264C319.138 50.5554 319.04 50.5433 318.966 50.5068C318.903 50.4582 318.874 50.4096 318.874 50.361V50.1665C318.874 49.4069 318.611 48.7566 318.095 48.2218C317.591 47.6871 316.914 47.4197 316.078 47.4197C315.218 47.4197 314.53 47.7053 314.015 48.2705C313.493 48.8417 313.235 49.577 313.235 50.4825V56.3408C313.235 57.2523 313.51 57.9877 314.061 58.5528C314.622 59.1241 315.333 59.4036 316.192 59.4036C317.018 59.4036 317.671 59.1727 318.164 58.6987C318.668 58.2308 318.92 57.5927 318.92 56.7783V55.6602C318.92 55.5629 318.863 55.5143 318.76 55.5143H316.238C315.975 55.5143 315.849 55.3685 315.849 55.0768V53.0106C315.849 52.7189 315.975 52.573 316.238 52.573H321.808C322.083 52.573 322.221 52.7189 322.221 53.0106V56.2192C322.221 57.5015 321.969 58.6136 321.464 59.5495C320.96 60.4914 320.238 61.2146 319.31 61.7129C318.376 62.1991 317.298 62.4422 316.078 62.4422Z" fill="white"/>
<path d="M337.778 62.2477C337.549 62.2477 337.394 62.1261 337.32 61.8831L336.655 59.5495C336.638 59.4705 336.592 59.4279 336.517 59.4279H330.672C330.592 59.4279 330.546 59.4705 330.535 59.5495L329.87 61.8831C329.79 62.1261 329.641 62.2477 329.412 62.2477H326.661C326.506 62.2477 326.397 62.2112 326.34 62.1261C326.277 62.0289 326.271 61.9074 326.317 61.7615L331.383 44.9159C331.475 44.6911 331.623 44.5756 331.841 44.5756H335.348C335.56 44.5756 335.715 44.6911 335.807 44.9159L340.872 61.7615C340.884 61.798 340.895 61.8466 340.895 61.9074C340.895 62.0228 340.861 62.114 340.804 62.1748C340.741 62.2234 340.649 62.2477 340.529 62.2477H337.778ZM331.36 56.4866C331.343 56.6021 331.389 56.6568 331.497 56.6568H335.715C335.807 56.6568 335.841 56.6021 335.83 56.4866L333.675 48.7809C333.658 48.7202 333.629 48.6837 333.583 48.6837C333.549 48.6837 333.52 48.7202 333.492 48.7809L331.36 56.4866Z" fill="white"/>
<path d="M345.828 62.2477C345.553 62.2477 345.416 62.1018 345.416 61.8101V44.9888C345.416 44.7154 345.553 44.5756 345.828 44.5756H351.673C352.865 44.5756 353.903 44.8065 354.791 45.2562C355.69 45.6938 356.384 46.3197 356.877 47.128C357.364 47.9423 357.61 48.8721 357.61 49.9234V56.8999C357.61 57.9573 357.364 58.8871 356.877 59.6953C356.384 60.5096 355.69 61.1417 354.791 61.5914C353.903 62.0289 352.865 62.2477 351.673 62.2477H345.828ZM348.785 59.039C348.785 59.1362 348.831 59.1848 348.923 59.1848H351.788C352.522 59.1848 353.106 58.9296 353.553 58.407C354.011 57.8904 354.246 57.1916 354.264 56.3165V50.5068C354.264 49.6317 354.034 48.9389 353.576 48.4163C353.129 47.8815 352.527 47.6141 351.765 47.6141H348.923C348.831 47.6141 348.785 47.6749 348.785 47.7843V59.039Z" fill="white"/>
<path d="M368.455 62.5151C367.218 62.5151 366.123 62.2477 365.178 61.7129C364.226 61.1781 363.493 60.4246 362.977 59.4522C362.456 58.4799 362.198 57.3739 362.198 56.122V50.7013C362.198 49.4555 362.456 48.3555 362.977 47.3954C363.493 46.4413 364.226 45.6938 365.178 45.159C366.123 44.6242 367.218 44.3568 368.455 44.3568C369.705 44.3568 370.805 44.6242 371.756 45.159C372.702 45.6938 373.435 46.4413 373.957 47.3954C374.472 48.3555 374.736 49.4555 374.736 50.7013V56.122C374.736 57.3739 374.472 58.4921 373.957 59.4765C373.435 60.4489 372.702 61.2024 371.756 61.7372C370.805 62.2538 369.705 62.5151 368.455 62.5151ZM368.455 59.4765C369.326 59.4765 370.025 59.1848 370.564 58.6015C371.114 58.0059 371.389 57.2159 371.389 56.2436V50.677C371.389 49.7046 371.12 48.9207 370.587 48.3191C370.048 47.7235 369.338 47.4197 368.455 47.4197C367.584 47.4197 366.879 47.7235 366.347 48.3191C365.808 48.9207 365.544 49.7046 365.544 50.677V56.2436C365.544 57.2159 365.808 58.0059 366.347 58.6015C366.879 59.1848 367.584 59.4765 368.455 59.4765Z" fill="white"/>
<path d="M27.7921 25.9126V7.51123H24.9956V32.5487C26.858 31.7404 27.7921 29.5284 27.7921 25.9126ZM12.0907 5.54227H48.0778V7.51123H43.7685C42.3015 7.51123 41.1439 8.00955 40.3073 8.99403C39.4649 9.96636 39.0466 11.1696 39.0466 12.5916V26.4473C39.0466 28.0881 38.7486 29.498 38.1527 30.677C37.5567 31.862 36.5596 32.9133 35.1728 33.837C32.4222 35.6176 27.7061 36.5109 21.0302 36.5109C14.3485 36.5109 8.29718 35.3867 2.8762 33.1321V35.49H0.744483V23.4088H2.8762C3.22575 24.3021 3.90767 25.4872 4.91623 26.9578C5.93624 28.4345 6.96199 29.6682 7.98773 30.6527C9.00775 31.6432 10.3601 32.5365 12.0449 33.3266C13.7239 34.1226 15.38 34.5177 17.0189 34.5177C20.3941 34.5177 22.0846 32.8586 22.0846 29.5345V12.5916C22.0846 11.1696 21.6548 9.96636 20.801 8.99403C19.9586 8.00955 18.8125 7.51123 17.3627 7.51123H12.0907V5.54227Z" fill="white"/>
<path d="M78.0337 9.77191H95.0875V11.7652C93.0532 11.7652 91.3742 12.1784 90.0447 13.0049C88.4688 13.9651 87.6838 16.0374 87.6838 19.2278V27.6141C87.6838 30.3731 87.0935 32.2935 85.9188 33.3752C84.406 34.7851 82.4462 35.7088 80.0509 36.1463C78.538 36.3894 76.4636 36.5109 73.8391 36.5109C71.226 36.5109 68.7505 36.3226 66.4124 35.9519C64.0859 35.5751 62.3324 35.1436 61.1405 34.6392C59.9485 34.1409 59.0145 33.4907 58.344 32.6946C57.685 31.8863 57.2896 31.1874 57.1521 30.604C57.026 30.0207 56.9687 29.3339 56.9687 28.5378V15.8003C56.9687 13.1143 55.6736 11.7652 53.095 11.7652H51.5363V9.77191H76.1771V11.7652H75.4894C72.905 11.7652 71.6157 13.1143 71.6157 15.8003V28.9997C71.6157 30.9322 71.9366 32.3542 72.5784 33.278C73.2317 34.2017 74.3032 34.6635 75.7874 34.6635C79.3174 34.6635 81.7356 34.1409 83.0536 33.0835C84.383 32.0139 85.0478 30.5554 85.0478 28.708V19.2278C85.0478 17.6599 84.7956 16.3351 84.2914 15.2656C83.7986 14.1839 83.151 13.4121 82.343 12.9563C80.9219 12.1663 79.4835 11.7652 78.0337 11.7652V9.77191ZM61.8281 11.7652H59.6964V27.3224C59.6964 29.2671 60.1606 30.6709 61.0946 31.5278C61.2895 31.7101 61.5359 31.862 61.8281 31.9896V11.7652Z" fill="white"/>
<path d="M155.193 33.4967V35.49H133.119L125.692 25.4021C124.942 24.3507 124.317 23.822 123.813 23.822C123.32 23.822 123.034 24.0043 122.942 24.3568C122.862 24.7154 122.827 25.4264 122.827 26.4959V29.4129C122.827 32.1354 124.117 33.4967 126.701 33.4967H129.52V35.49H99.6076V33.4967H104.215C106.828 33.4967 108.134 32.1354 108.134 29.4129V15.8976C108.134 14.7672 107.751 13.7949 106.988 12.9806C106.22 12.1723 105.298 11.7652 104.215 11.7652H99.6076V9.77189C121.916 9.7415 135.188 9.72327 139.423 9.72327C148.179 9.72327 152.557 12.1541 152.557 17.0157C152.557 18.3952 152.144 19.5559 151.319 20.4918C150.494 21.4338 149.325 22.1326 147.812 22.5823C145.256 23.3298 142.139 23.7248 138.46 23.7734V24.0651C139.067 24.6181 140.03 25.1772 141.348 25.7424C142.677 26.3136 144.167 26.7329 145.818 27.0064L150.723 33.4967H155.193ZM110.839 33.4967H113.04V11.7652H110.839V33.4967ZM122.827 13.6369V19.1792C122.827 19.8294 123.412 20.3885 124.592 20.8564C125.784 21.3304 127.188 21.5614 128.81 21.5614C130.443 21.5614 131.847 21.1967 133.027 20.4675C134.219 19.7261 134.815 18.5228 134.815 16.8699C134.815 15.2169 134.156 13.9529 132.844 13.0778C131.526 12.2027 130.214 11.7652 128.902 11.7652H124.569C124.065 11.7652 123.641 11.9535 123.309 12.3242C122.988 12.6828 122.827 13.1203 122.827 13.6369ZM127.824 23.822L134.953 33.4967H137.681C134.563 29.2063 132.202 25.9794 130.598 23.822H127.824ZM139.904 20.0543C140.511 19.1002 140.821 18.1035 140.821 17.0644C140.821 16.013 140.511 15.0164 139.904 14.0744C139.291 13.1203 138.552 12.4397 137.681 12.0326L137.52 12.1784C138.145 13.3817 138.46 15.0103 138.46 17.0644C138.46 19.1245 138.145 20.7531 137.52 21.9503L137.681 22.0718C138.552 21.6829 139.291 21.0144 139.904 20.0543Z" fill="white"/>
<path d="M183.244 29.4616C183.244 32.1537 184.55 33.4967 187.163 33.4967H191.771V35.49H160.07V33.4967H164.677C167.29 33.4967 168.597 32.1537 168.597 29.4616V15.8976C168.597 14.7976 168.213 13.8314 167.451 13.0049C166.683 12.1784 165.76 11.7652 164.677 11.7652H160.07V9.7719H191.771V11.7652H187.163C186.075 11.7652 185.152 12.1784 184.39 13.0049C183.622 13.8314 183.244 14.7976 183.244 15.8976V29.4616ZM173.502 11.7652H171.302V33.4967H173.502V11.7652ZM166.419 6.73338H164.081V5.08042C167.245 5.08042 169.611 4.68541 171.187 3.88931C172.757 3.08107 174.144 1.78665 175.336 0H187.989C187.897 0.407163 187.674 0.935865 187.324 1.58003C186.969 2.21205 186.579 2.78329 186.155 3.28161C185.725 3.76777 185.101 4.27217 184.275 4.78872C183.462 5.29311 182.556 5.66381 181.548 5.9069C179.284 6.45991 174.241 6.73338 166.419 6.73338ZM172.677 4.7401V4.93457C176.006 4.75833 178.396 3.54292 179.851 1.28834H177.078C176.723 2.0662 176.104 2.77114 175.221 3.40315C174.333 4.02301 173.485 4.46663 172.677 4.7401Z" fill="white"/>
<path d="M199.395 9.77191H227.726C233.835 9.77191 239.038 10.6956 243.336 12.543C245.537 13.4668 247.279 14.7551 248.562 16.4081C249.846 18.0489 250.488 19.9449 250.488 22.0962C250.488 24.2353 250.018 26.1253 249.089 27.76C248.173 29.3826 247.026 30.6709 245.651 31.625C244.276 32.5852 242.677 33.3509 240.861 33.9343C237.755 34.9735 234.494 35.49 231.073 35.49H199.395V33.4967H203.957C206.553 33.4967 207.853 32.1355 207.853 29.4129V15.849C207.853 14.749 207.469 13.7949 206.707 12.9806C205.939 12.1723 205.022 11.7652 203.957 11.7652H199.395V9.77191ZM212.736 33.5453V11.7652H210.604V33.5453H212.736ZM225.457 33.4967H228.804C230.225 33.4967 231.4 32.9619 232.334 31.8924C234.013 29.9963 234.855 26.9274 234.855 22.6796C234.855 15.4053 232.139 11.7652 226.718 11.7652C225.417 11.7652 224.38 12.1055 223.601 12.7861C222.833 13.4546 222.454 14.3358 222.454 15.4357V29.6803C222.454 32.2266 223.452 33.4967 225.457 33.4967ZM239.623 28.8052C240.614 26.9092 241.113 24.8673 241.113 22.6796C241.113 20.4918 240.614 18.4621 239.623 16.5782C238.643 14.6822 237.25 13.1994 235.451 12.1298L235.291 12.2513C237.336 15.1197 238.362 18.5958 238.362 22.6796C238.362 26.7633 237.336 30.2333 235.291 33.0835L235.451 33.2293C237.25 32.1598 238.643 30.6891 239.623 28.8052Z" fill="white"/>
</g>
<defs>
<filter id="filter0_i_6657_100" x="0" y="0" width="375.651" height="63.0973" filterUnits="userSpaceOnUse" color-interpolation-filters="sRGB">
<feFlood flood-opacity="0" result="BackgroundImageFix"/>
<feBlend mode="normal" in="SourceGraphic" in2="BackgroundImageFix" result="shape"/>
<feColorMatrix in="SourceAlpha" type="matrix" values="0 0 0 0 0 0 0 0 0 0 0 0 0 0 0 0 0 0 127 0" result="hardAlpha"/>
<feOffset dy="0.582179"/>
<feGaussianBlur stdDeviation="0.29109"/>
<feComposite in2="hardAlpha" operator="arithmetic" k2="-1" k3="1"/>
<feColorMatrix type="matrix" values="0 0 0 0 0 0 0 0 0 0 0 0 0 0 0 0 0 0 0.25 0"/>
<feBlend mode="normal" in2="shape" result="effect1_innerShadow_6657_100"/>
</filter>
</defs>
</svg>
